<?xml version="1.0" encoding="UTF-8"?>
<svg version="1.1" xmlns="http://www.w3.org/2000/svg" width="256" height="256">
<path d="M0 0 C1.08674643 -0.00128164 1.08674643 -0.00128164 2.19544733 -0.00258917 C4.63531768 -0.00424288 7.07512005 0.00127563 9.51498413 0.00672913 C11.25909931 0.00701105 13.0032146 0.00685317 14.74732971 0.00628662 C19.49293803 0.00599884 24.23852124 0.01189248 28.98412371 0.01886058 C33.93958949 0.0250973 38.8950558 0.02569817 43.8505249 0.02688599 C53.2392368 0.02999836 62.6279371 0.03821049 72.01664388 0.04823548 C82.70330519 0.05939953 93.38996705 0.0649078 104.07663274 0.06993091 C126.06439046 0.08039317 148.05213774 0.0979908 170.03988647 0.12025452 C170.03988647 3.75025452 170.03988647 7.38025452 170.03988647 11.12025452 C174.98988647 11.12025452 179.93988647 11.12025452 185.03988647 11.12025452 C185.03988647 26.30025452 185.03988647 41.48025452 185.03988647 57.12025452 C180.08988647 57.12025452 175.13988647 57.12025452 170.03988647 57.12025452 C170.03988647 59.10025452 170.03988647 61.08025452 170.03988647 63.12025452 C174.98988647 63.12025452 179.93988647 63.12025452 185.03988647 63.12025452 C185.03988647 78.63025452 185.03988647 94.14025452 185.03988647 110.12025452 C180.08988647 110.12025452 175.13988647 110.12025452 170.03988647 110.12025452 C170.03988647 112.10025452 170.03988647 114.08025452 170.03988647 116.12025452 C174.98988647 116.12025452 179.93988647 116.12025452 185.03988647 116.12025452 C185.03988647 131.30025452 185.03988647 146.48025452 185.03988647 162.12025452 C180.08988647 162.12025452 175.13988647 162.12025452 170.03988647 162.12025452 C170.03988647 164.10025452 170.03988647 166.08025452 170.03988647 168.12025452 C174.98988647 168.12025452 179.93988647 168.12025452 185.03988647 168.12025452 C185.03988647 183.63025452 185.03988647 199.14025452 185.03988647 215.12025452 C180.08988647 215.12025452 175.13988647 215.12025452 170.03988647 215.12025452 C170.03988647 218.75025452 170.03988647 222.38025452 170.03988647 226.12025452 C167.39988647 226.12025452 164.75988647 226.12025452 162.03988647 226.12025452 C162.03988647 233.38025452 162.03988647 240.64025452 162.03988647 248.12025452 C164.67988647 248.12025452 167.31988647 248.12025452 170.03988647 248.12025452 C170.03988647 250.76025452 170.03988647 253.40025452 170.03988647 256.12025452 C153.20988647 256.12025452 136.37988647 256.12025452 119.03988647 256.12025452 C119.03988647 255.13025452 119.03988647 254.14025452 119.03988647 253.12025452 C117.05988647 253.12025452 115.07988647 253.12025452 113.03988647 253.12025452 C113.03988647 254.11025452 113.03988647 255.10025452 113.03988647 256.12025452 C97.49751836 256.21375392 81.95517133 256.28426116 66.41258812 256.3275032 C59.19564784 256.34811621 51.97888246 256.37621241 44.76205444 256.42201233 C38.47082578 256.46191907 32.17972379 256.48769651 25.88837206 256.4966085 C22.55799338 256.50181689 19.22806094 256.51613829 15.89777756 256.54317474 C12.17718708 256.57218054 8.45734904 256.57621151 4.73666382 256.57435608 C3.63614685 256.58873718 2.53562988 256.60311829 1.40176392 256.61793518 C-4.73027305 256.58481166 -8.30176868 256.22604666 -12.96011353 252.12025452 C-19.62297715 245.15453346 -20.25751741 239.12174489 -20.15542603 229.90931702 C-20.15259613 228.94118073 -20.14976624 227.97304443 -20.14685059 226.97557068 C-20.13570048 223.89867024 -20.11060532 220.82206624 -20.08511353 217.74525452 C-20.07507705 215.65281082 -20.06595236 213.56036254 -20.05776978 211.46791077 C-20.03577805 206.351912 -20.00128378 201.23613344 -19.96011353 196.12025452 C-21.04679321 196.1653717 -22.1334729 196.21048889 -23.25308228 196.25697327 C-28.09993694 196.07821677 -29.65818441 194.57576173 -32.96011353 191.12025452 C-35.18247218 187.78671654 -35.04219114 185.38141395 -34.39761353 181.55775452 C-33.31928289 177.32195901 -31.77900507 175.41158944 -27.96011353 173.12025452 C-25.25132017 171.76585784 -22.95078085 172.05524001 -19.96011353 172.12025452 C-19.96011353 170.14025452 -19.96011353 168.16025452 -19.96011353 166.12025452 C-20.99136353 166.22337952 -22.02261353 166.32650452 -23.08511353 166.43275452 C-27.97843936 166.03813147 -29.60831161 164.6279542 -32.96011353 161.12025452 C-35.18247218 157.78671654 -35.04219114 155.38141395 -34.39761353 151.55775452 C-33.31928289 147.32195901 -31.77900507 145.41158944 -27.96011353 143.12025452 C-25.96011353 142.12025452 -25.96011353 142.12025452 -19.96011353 142.12025452 C-19.96011353 122.98025452 -19.96011353 103.84025452 -19.96011353 84.12025452 C-21.94011353 84.12025452 -23.92011353 84.12025452 -25.96011353 84.12025452 C-29.969123 82.15505379 -31.66579891 80.6329316 -33.89761353 76.74525452 C-35.35082632 71.78723439 -34.84600436 68.97640674 -32.64761353 64.37025452 C-30.78864284 61.89162694 -29.90508565 61.02010711 -26.96011353 60.12025452 C-24.62807541 60.04251991 -22.29172293 60.03057723 -19.96011353 60.12025452 C-19.96011353 58.14025452 -19.96011353 56.16025452 -19.96011353 54.12025452 C-20.82636353 54.20275452 -21.69261353 54.28525452 -22.58511353 54.37025452 C-26.89263307 54.05117899 -28.706831 52.93976604 -31.96011353 50.12025452 C-34.03570638 46.50470567 -35.00217691 44.1718391 -34.83511353 39.99525452 C-33.67659614 36.18869738 -32.45249154 33.23953803 -29.21011353 30.80775452 C-26.11053518 29.86066113 -23.18333447 30.07902727 -19.96011353 30.12025452 C-19.99491821 29.20244202 -20.0297229 28.28462952 -20.06558228 27.33900452 C-20.40984898 11.73224746 -20.40984898 11.73224746 -15.04995728 6.12025452 C-9.78533066 1.38113509 -7.17592057 -0.00507491 0 0 Z " fill="#E9965C" transform="translate(52.960113525390625,-0.1202545166015625)"/>
<path d="M0 0 C1.08674643 -0.00128164 1.08674643 -0.00128164 2.19544733 -0.00258917 C4.63531768 -0.00424288 7.07512005 0.00127563 9.51498413 0.00672913 C11.25909931 0.00701105 13.0032146 0.00685317 14.74732971 0.00628662 C19.49293803 0.00599884 24.23852124 0.01189248 28.98412371 0.01886058 C33.93958949 0.0250973 38.8950558 0.02569817 43.8505249 0.02688599 C53.2392368 0.02999836 62.6279371 0.03821049 72.01664388 0.04823548 C82.70330519 0.05939953 93.38996705 0.0649078 104.07663274 0.06993091 C126.06439046 0.08039317 148.05213774 0.0979908 170.03988647 0.12025452 C170.03988647 3.75025452 170.03988647 7.38025452 170.03988647 11.12025452 C174.98988647 11.12025452 179.93988647 11.12025452 185.03988647 11.12025452 C185.03988647 26.30025452 185.03988647 41.48025452 185.03988647 57.12025452 C180.08988647 57.12025452 175.13988647 57.12025452 170.03988647 57.12025452 C170.03988647 59.10025452 170.03988647 61.08025452 170.03988647 63.12025452 C174.98988647 63.12025452 179.93988647 63.12025452 185.03988647 63.12025452 C185.03988647 78.63025452 185.03988647 94.14025452 185.03988647 110.12025452 C180.08988647 110.12025452 175.13988647 110.12025452 170.03988647 110.12025452 C170.03988647 112.10025452 170.03988647 114.08025452 170.03988647 116.12025452 C174.98988647 116.12025452 179.93988647 116.12025452 185.03988647 116.12025452 C185.03988647 131.30025452 185.03988647 146.48025452 185.03988647 162.12025452 C180.08988647 162.12025452 175.13988647 162.12025452 170.03988647 162.12025452 C170.03988647 164.10025452 170.03988647 166.08025452 170.03988647 168.12025452 C174.98988647 168.12025452 179.93988647 168.12025452 185.03988647 168.12025452 C185.03988647 183.63025452 185.03988647 199.14025452 185.03988647 215.12025452 C180.08988647 215.12025452 175.13988647 215.12025452 170.03988647 215.12025452 C170.03988647 218.75025452 170.03988647 222.38025452 170.03988647 226.12025452 C167.39988647 226.12025452 164.75988647 226.12025452 162.03988647 226.12025452 C162.03988647 233.38025452 162.03988647 240.64025452 162.03988647 248.12025452 C164.67988647 248.12025452 167.31988647 248.12025452 170.03988647 248.12025452 C170.03988647 250.76025452 170.03988647 253.40025452 170.03988647 256.12025452 C153.20988647 256.12025452 136.37988647 256.12025452 119.03988647 256.12025452 C119.03988647 255.13025452 119.03988647 254.14025452 119.03988647 253.12025452 C117.05988647 253.12025452 115.07988647 253.12025452 113.03988647 253.12025452 C113.03988647 254.11025452 113.03988647 255.10025452 113.03988647 256.12025452 C97.49751836 256.21375392 81.95517133 256.28426116 66.41258812 256.3275032 C59.19564784 256.34811621 51.97888246 256.37621241 44.76205444 256.42201233 C38.47082578 256.46191907 32.17972379 256.48769651 25.88837206 256.4966085 C22.55799338 256.50181689 19.22806094 256.51613829 15.89777756 256.54317474 C12.17718708 256.57218054 8.45734904 256.57621151 4.73666382 256.57435608 C3.63614685 256.58873718 2.53562988 256.60311829 1.40176392 256.61793518 C-4.73027305 256.58481166 -8.30176868 256.22604666 -12.96011353 252.12025452 C-19.62297715 245.15453346 -20.25751741 239.12174489 -20.15542603 229.90931702 C-20.15259613 228.94118073 -20.14976624 227.97304443 -20.14685059 226.97557068 C-20.13570048 223.89867024 -20.11060532 220.82206624 -20.08511353 217.74525452 C-20.07507705 215.65281082 -20.06595236 213.56036254 -20.05776978 211.46791077 C-20.03577805 206.351912 -20.00128378 201.23613344 -19.96011353 196.12025452 C-21.04679321 196.1653717 -22.1334729 196.21048889 -23.25308228 196.25697327 C-28.09993694 196.07821677 -29.65818441 194.57576173 -32.96011353 191.12025452 C-35.18247218 187.78671654 -35.04219114 185.38141395 -34.39761353 181.55775452 C-33.31928289 177.32195901 -31.77900507 175.41158944 -27.96011353 173.12025452 C-25.25132017 171.76585784 -22.95078085 172.05524001 -19.96011353 172.12025452 C-19.96011353 170.14025452 -19.96011353 168.16025452 -19.96011353 166.12025452 C-20.99136353 166.22337952 -22.02261353 166.32650452 -23.08511353 166.43275452 C-27.97843936 166.03813147 -29.60831161 164.6279542 -32.96011353 161.12025452 C-35.18247218 157.78671654 -35.04219114 155.38141395 -34.39761353 151.55775452 C-33.31928289 147.32195901 -31.77900507 145.41158944 -27.96011353 143.12025452 C-25.96011353 142.12025452 -25.96011353 142.12025452 -19.96011353 142.12025452 C-19.96011353 122.98025452 -19.96011353 103.84025452 -19.96011353 84.12025452 C-21.94011353 84.12025452 -23.92011353 84.12025452 -25.96011353 84.12025452 C-29.969123 82.15505379 -31.66579891 80.6329316 -33.89761353 76.74525452 C-35.35082632 71.78723439 -34.84600436 68.97640674 -32.64761353 64.37025452 C-30.78864284 61.89162694 -29.90508565 61.02010711 -26.96011353 60.12025452 C-24.62807541 60.04251991 -22.29172293 60.03057723 -19.96011353 60.12025452 C-19.96011353 58.14025452 -19.96011353 56.16025452 -19.96011353 54.12025452 C-20.82636353 54.20275452 -21.69261353 54.28525452 -22.58511353 54.37025452 C-26.89263307 54.05117899 -28.706831 52.93976604 -31.96011353 50.12025452 C-34.03570638 46.50470567 -35.00217691 44.1718391 -34.83511353 39.99525452 C-33.67659614 36.18869738 -32.45249154 33.23953803 -29.21011353 30.80775452 C-26.11053518 29.86066113 -23.18333447 30.07902727 -19.96011353 30.12025452 C-19.99491821 29.20244202 -20.0297229 28.28462952 -20.06558228 27.33900452 C-20.40984898 11.73224746 -20.40984898 11.73224746 -15.04995728 6.12025452 C-9.78533066 1.38113509 -7.17592057 -0.00507491 0 0 Z M-9.69501495 12.18702602 C-11.98608452 15.68806623 -11.82059622 19.01272269 -11.46011353 23.05775452 C-11.42401978 23.8369928 -11.38792603 24.61623108 -11.35073853 25.41908264 C-11.25736154 27.32163868 -11.11388329 29.22162512 -10.96011353 31.12025452 C-6.34011353 31.12025452 -1.72011353 31.12025452 3.03988647 31.12025452 C3.03988647 38.38025452 3.03988647 45.64025452 3.03988647 53.12025452 C-1.58011353 53.12025452 -6.20011353 53.12025452 -10.96011353 53.12025452 C-10.96011353 55.76025452 -10.96011353 58.40025452 -10.96011353 61.12025452 C-6.34011353 61.12025452 -1.72011353 61.12025452 3.03988647 61.12025452 C3.03988647 68.38025452 3.03988647 75.64025452 3.03988647 83.12025452 C-1.58011353 83.12025452 -6.20011353 83.12025452 -10.96011353 83.12025452 C-10.96011353 102.92025452 -10.96011353 122.72025452 -10.96011353 143.12025452 C-6.01011353 143.12025452 -1.06011353 143.12025452 4.03988647 143.12025452 C4.03988647 150.71025452 4.03988647 158.30025452 4.03988647 166.12025452 C1.39988647 166.12025452 -1.24011353 166.12025452 -3.96011353 166.12025452 C-3.96011353 168.43025452 -3.96011353 170.74025452 -3.96011353 173.12025452 C-1.32011353 173.12025452 1.31988647 173.12025452 4.03988647 173.12025452 C4.03988647 180.71025452 4.03988647 188.30025452 4.03988647 196.12025452 C-0.91011353 196.12025452 -5.86011353 196.12025452 -10.96011353 196.12025452 C-10.96011353 204.37025452 -10.96011353 212.62025452 -10.96011353 221.12025452 C-7.99011353 220.13025452 -7.99011353 220.13025452 -4.96011353 219.12025452 C-1.62934303 218.85854149 -1.62934303 218.85854149 2.06341553 218.84178162 C2.7447757 218.83599594 3.42613586 218.83021027 4.12814331 218.82424927 C6.40525046 218.80729613 8.68215492 218.80438767 10.95932007 218.80140686 C12.62209881 218.79199203 14.28487284 218.78171231 15.94764137 218.77063942 C20.39350578 218.74341442 24.83933716 218.72800028 29.28526306 218.71505737 C33.45978155 218.70110798 37.63421056 218.67647399 41.8086853 218.65272522 C54.01070155 218.58951702 66.21280161 218.54342815 78.41488647 218.49525452 C105.68113647 218.37150452 132.94738647 218.24775452 161.03988647 218.12025452 C161.03988647 148.49025452 161.03988647 78.86025452 161.03988647 7.12025452 C134.14488647 6.97587952 107.24988647 6.83150452 79.53988647 6.68275452 C66.80620483 6.58716248 66.80620483 6.58716248 53.8152771 6.48963928 C46.1992592 6.46622685 46.1992592 6.46622685 38.58322144 6.45214844 C35.19324615 6.44563189 31.80403976 6.41942314 28.41427612 6.38122559 C24.08603744 6.3331012 19.75891181 6.31883538 15.43043041 6.32874858 C13.84466409 6.32667673 12.25885767 6.31285752 10.67332172 6.2857486 C2.59010152 6.15399993 -3.68649176 6.15763928 -9.69501495 12.18702602 Z " fill="#040403" transform="translate(52.960113525390625,-0.1202545166015625)"/>
<path d="M0 0 C7.79686885 3.57052872 10.53635998 9.66189004 13.65234375 17.26953125 C14.31234375 16.77453125 14.97234375 16.27953125 15.65234375 15.76953125 C19.38667991 13.90236317 22.58958966 13.53157006 26.65234375 14.26953125 C32.15234375 17.26953125 32.15234375 17.26953125 33.65234375 20.26953125 C34.29742294 25.47624186 34.56969605 29.0866296 31.27734375 33.33203125 C26.55912897 36.81452311 26.55270363 36.26953125 19.65234375 36.26953125 C19.65234375 43.85953125 19.65234375 51.44953125 19.65234375 59.26953125 C8.43234375 59.26953125 -2.78765625 59.26953125 -14.34765625 59.26953125 C-14.34765625 61.57953125 -14.34765625 63.88953125 -14.34765625 66.26953125 C-3.12765625 66.26953125 8.09234375 66.26953125 19.65234375 66.26953125 C19.65234375 68.90953125 19.65234375 71.54953125 19.65234375 74.26953125 C2.16234375 74.26953125 -15.32765625 74.26953125 -33.34765625 74.26953125 C-33.34765625 71.62953125 -33.34765625 68.98953125 -33.34765625 66.26953125 C-29.71765625 66.26953125 -26.08765625 66.26953125 -22.34765625 66.26953125 C-22.34765625 63.95953125 -22.34765625 61.64953125 -22.34765625 59.26953125 C-25.97765625 59.26953125 -29.60765625 59.26953125 -33.34765625 59.26953125 C-33.34765625 51.67953125 -33.34765625 44.08953125 -33.34765625 36.26953125 C-35.98765625 36.26953125 -38.62765625 36.26953125 -41.34765625 36.26953125 C-44.78717773 34.17590948 -47.127938 32.15045294 -48.34765625 28.26953125 C-48.77768143 24.95219416 -49.06525287 22.46463639 -47.296875 19.51953125 C-45.51434184 17.33211592 -43.89081123 15.54110874 -41.34765625 14.26953125 C-35.35562393 13.86329177 -31.70566777 14.59052549 -26.34765625 17.26953125 C-26.30640625 16.44453125 -26.26515625 15.61953125 -26.22265625 14.76953125 C-24.73659392 8.82528193 -21.08005376 4.88106382 -16.66015625 0.76953125 C-11.22731379 -1.69062383 -5.70483222 -1.77504763 0 0 Z " fill="#FCFDFD" transform="translate(142.34765625,42.73046875)"/>
<path d="M0 0 C1.16422454 0.00092179 2.32844908 0.00184359 3.52795315 0.00279331 C4.49703669 0.00151167 4.49703669 0.00151167 5.48569769 0.00020415 C7.66610578 -0.00145241 9.84643816 0.00407354 12.02683926 0.00952244 C13.58361719 0.0098043 15.14039526 0.0096466 16.69717312 0.00907993 C20.93665966 0.00879191 25.17611816 0.01468937 29.41559815 0.02165389 C33.84122181 0.02788668 38.26684604 0.02849117 42.69247341 0.0296793 C51.0789474 0.03279284 59.46540841 0.04100653 67.85187668 0.05102879 C77.3970611 0.06218923 86.94224614 0.0677002 96.48743546 0.07272422 C116.1281001 0.08318912 135.76875304 0.100789 155.40940762 0.12304783 C155.40940762 2.43304783 155.40940762 4.74304783 155.40940762 7.12304783 C112.17940762 7.12304783 68.94940762 7.12304783 24.40940762 7.12304783 C24.40940762 9.43304783 24.40940762 11.74304783 24.40940762 14.12304783 C67.96940762 14.12304783 111.52940762 14.12304783 156.40940762 14.12304783 C156.40940762 17.09304783 156.40940762 20.06304783 156.40940762 23.12304783 C145.18940762 23.12304783 133.96940762 23.12304783 122.40940762 23.12304783 C122.40940762 24.44304783 122.40940762 25.76304783 122.40940762 27.12304783 C120.09940762 27.12304783 117.78940762 27.12304783 115.40940762 27.12304783 C115.40940762 25.80304783 115.40940762 24.48304783 115.40940762 23.12304783 C114.81802722 23.12857859 114.22664682 23.13410934 113.61734581 23.1398077 C99.21121306 23.27245741 84.8051349 23.37167156 70.39852715 23.43392086 C63.43147153 23.46482646 56.46482418 23.50694257 49.49803066 23.57568455 C42.77418375 23.64199759 36.05084849 23.67675793 29.32666111 23.69231129 C26.76178786 23.70339462 24.19693773 23.72503795 21.63224506 23.75742817 C18.03849489 23.80100817 14.4464949 23.80698081 10.85252285 23.80420017 C9.26324474 23.83655766 9.26324474 23.83655766 7.64186001 23.86956882 C1.48398655 23.81804008 -1.92408347 22.98617759 -6.36398315 18.60691357 C-9.02682388 15.38559579 -8.97340365 12.42747947 -8.95387363 8.38476658 C-8.38248068 4.82738466 -6.33938949 3.26845044 -3.59059238 1.12304783 C-2.59059238 0.12304783 -2.59059238 0.12304783 0 0 Z " fill="#B3C5D6" transform="translate(50.59059238433838,225.87695217132568)"/>
<path d="M0 0 C37.29 0 74.58 0 113 0 C113 7.59 113 15.18 113 23 C75.71 23 38.42 23 0 23 C0 15.41 0 7.82 0 0 Z " fill="#120E07" transform="translate(79,139)"/>
<path d="M0 0 C4.46252121 2.39063636 9.4028263 5.15420602 11.37109375 10.03515625 C11.74363281 10.64230469 12.11617188 11.24945313 12.5 11.875 C14.91817258 12.43146392 14.91817258 12.43146392 17.6875 12.375 C23.99169455 12.75358087 27.66877789 13.99883785 32.22265625 18.625 C37.00484225 24.05159404 37.96182728 27.44707529 37.91796875 34.75390625 C37.15065188 40.48368359 33.82223405 43.84544421 29.609375 47.52734375 C27.5 48.875 27.5 48.875 22.5 49.875 C22.5 62.415 22.5 74.955 22.5 87.875 C0.39 87.875 -21.72 87.875 -44.5 87.875 C-44.5 75.335 -44.5 62.795 -44.5 49.875 C-46.48 49.545 -48.46 49.215 -50.5 48.875 C-52.546875 47.38671875 -52.546875 47.38671875 -54.25 45.5625 C-54.82234375 44.96824219 -55.3946875 44.37398437 -55.984375 43.76171875 C-59.64913202 39.19966298 -59.9387423 35.4371604 -59.80859375 29.6953125 C-59.25315031 24.61898132 -57.5744208 20.80502956 -53.81640625 17.30859375 C-49.23113758 13.84745546 -45.85913031 12.65860795 -40.125 13.3125 C-37.17064385 13.36077379 -35.99067618 13.34504027 -33.828125 11.2734375 C-32.8463663 9.86413872 -31.89493223 8.43329882 -30.97265625 6.984375 C-24.35386322 -2.4961243 -10.31659099 -3.45921197 0 0 Z M-26.8125 13.75 C-29.19183935 17.06740787 -30.29226625 19.72032509 -30.5 23.875 C-31.49 23.38 -32.48 22.885 -33.5 22.375 C-37.7989998 20.5685516 -40.84443521 20.28381717 -45.5 20.875 C-48.51544751 22.63727452 -50.91380779 24.70261558 -52.5 27.875 C-53.04802111 33.57441954 -52.10961802 36.44032643 -48.5 40.875 C-44.99152482 43.61460026 -44.99152482 43.61460026 -37.5 42.875 C-37.5 50.465 -37.5 58.055 -37.5 65.875 C-33.87 65.875 -30.24 65.875 -26.5 65.875 C-26.5 68.185 -26.5 70.495 -26.5 72.875 C-30.13 72.875 -33.76 72.875 -37.5 72.875 C-37.5 75.515 -37.5 78.155 -37.5 80.875 C-20.01 80.875 -2.52 80.875 15.5 80.875 C15.5 78.235 15.5 75.595 15.5 72.875 C4.28 72.875 -6.94 72.875 -18.5 72.875 C-18.5 70.565 -18.5 68.255 -18.5 65.875 C-7.28 65.875 3.94 65.875 15.5 65.875 C15.5 58.285 15.5 50.695 15.5 42.875 C17.81 42.875 20.12 42.875 22.5 42.875 C26.74028619 40.6162063 26.74028619 40.6162063 29.5 36.875 C30.14507919 31.66828939 30.4173523 28.05790165 27.125 23.8125 C23.41491463 21.07410366 21.29190297 20.7257506 16.66796875 20.546875 C13.80095734 20.98080105 11.89351944 22.28767472 9.5 23.875 C9.12488281 23.05515625 8.74976563 22.2353125 8.36328125 21.390625 C7.85152344 20.31296875 7.33976562 19.2353125 6.8125 18.125 C6.31363281 17.05765625 5.81476563 15.9903125 5.30078125 14.890625 C2.43543061 10.09225039 -1.18270548 7.50224005 -6.5 5.875 C-15.69102664 4.72444936 -20.93111356 6.50923651 -26.8125 13.75 Z " fill="#060504" transform="translate(146.5,36.125)"/>
<path d="M0 0 C27.39 0 54.78 0 83 0 C83 7.59 83 15.18 83 23 C55.61 23 28.22 23 0 23 C0 15.41 0 7.82 0 0 Z " fill="#120E07" transform="translate(94,169)"/>
<path d="M0 0 C54.12 0 108.24 0 164 0 C164 69.63 164 139.26 164 211 C81.375 211.375 81.375 211.375 55.27880859 211.47802734 C47.56427817 211.51793273 47.56427817 211.51793273 39.84976196 211.56045532 C36.41169595 211.57933579 32.97365606 211.5926827 29.53555298 211.60269165 C25.1495088 211.61564114 20.76360788 211.6380262 16.37764287 211.66723371 C14.76832293 211.67634584 13.15898001 211.68214778 11.54963565 211.68425441 C9.37410294 211.68757901 7.19897835 211.70305457 5.02352905 211.7215271 C3.80491873 211.72705786 2.5863084 211.73258862 1.33077049 211.73828697 C-2.52258932 211.90648202 -2.52258932 211.90648202 -8 214 C-8 205.75 -8 197.5 -8 189 C-5.36 189 -2.72 189 0 189 C0 193.62 0 198.24 0 203 C53.79 203 107.58 203 163 203 C163 136.34 163 69.68 163 1 C109.21 1 55.42 1 0 1 C0 0.67 0 0.34 0 0 Z " fill="#B26328" transform="translate(50,7)"/>
<path d="M0 0 C1.14947585 0.00092179 2.2989517 0.00184359 3.48326015 0.00279331 C4.79724285 0.00141865 6.11122555 0.00004398 7.4650259 -0.00137234 C8.93484424 0.00216728 10.40466235 0.0058021 11.87448025 0.00952244 C13.411554 0.0098043 14.94862789 0.0096466 16.48570156 0.00907993 C20.67147095 0.00879192 24.85721194 0.01468931 29.04297471 0.02165389 C33.41254392 0.02788674 37.7821137 0.02849117 42.15168667 0.0296793 C50.43191283 0.03279282 58.71212586 0.04100648 66.99234623 0.05102879 C76.41661395 0.06218929 85.84088228 0.06770021 95.26515496 0.07272422 C114.65699155 0.08318908 134.0488159 0.10078892 153.44064236 0.12304783 C153.44064236 2.43304783 153.44064236 4.74304783 153.44064236 7.12304783 C110.21064236 7.12304783 66.98064236 7.12304783 22.44064236 7.12304783 C22.44064236 9.43304783 22.44064236 11.74304783 22.44064236 14.12304783 C20.46064236 14.12304783 18.48064236 14.12304783 16.44064236 14.12304783 C16.44064236 11.81304783 16.44064236 9.50304783 16.44064236 7.12304783 C13.47064236 7.12304783 10.50064236 7.12304783 7.44064236 7.12304783 C7.44064236 9.43304783 7.44064236 11.74304783 7.44064236 14.12304783 C5.98271352 14.17704519 4.52421524 14.21583959 3.06564236 14.24804783 C2.25353298 14.27125095 1.44142361 14.29445408 0.60470486 14.31836033 C-1.55935764 14.12304783 -1.55935764 14.12304783 -3.55935764 12.12304783 C-3.78982639 9.55664158 -3.78982639 9.55664158 -3.74685764 6.56054783 C-3.74041233 5.56925877 -3.73396702 4.5779697 -3.72732639 3.55664158 C-3.49603129 0.20555202 -3.36895444 0.16197132 0 0 Z " fill="#E0EAF3" transform="translate(52.55935764312744,225.87695217132568)"/>
<path d="M0 0 C0.66 0.33 1.32 0.66 2 1 C1.70703125 2.98567708 1.4140625 4.97135417 1.12109375 6.95703125 C0.86095201 9.2025342 0.86095201 9.2025342 2 12 C5.31544299 13.10514766 8.20410111 13.32107631 11.6875 13.5625 C13.770625 13.706875 15.85375 13.85125 18 14 C18.33 21.26 18.66 28.52 19 36 C33.19 36.33 47.38 36.66 62 37 C62 31.72 62 26.44 62 21 C62.33 21 62.66 21 63 21 C63 28.59 63 36.18 63 44 C51.78 44 40.56 44 29 44 C29 46.31 29 48.62 29 51 C40.22 51 51.44 51 63 51 C63 53.64 63 56.28 63 59 C45.51 59 28.02 59 10 59 C10 56.36 10 53.72 10 51 C13.63 51 17.26 51 21 51 C21 48.69 21 46.38 21 44 C17.37 44 13.74 44 10 44 C10 36.41 10 28.82 10 21 C7.36 21 4.72 21 2 21 C-1.43952148 18.90637823 -3.78028175 16.88092169 -5 13 C-5.435879 9.63750483 -5.73146805 7.16474181 -3.87890625 4.21484375 C-2.65554289 2.74888709 -1.33335003 1.36668378 0 0 Z " fill="#D8E1EA" transform="translate(99,58)"/>
<path d="M0 0 C32.01 0 64.02 0 97 0 C97 2.31 97 4.62 97 7 C64.99 7 32.98 7 0 7 C0 4.69 0 2.38 0 0 Z " fill="#FAE65B" transform="translate(87,147)"/>
<path d="M0 0 C22.11 0 44.22 0 67 0 C67 2.31 67 4.62 67 7 C44.89 7 22.78 7 0 7 C0 4.69 0 2.38 0 0 Z " fill="#FAE65B" transform="translate(102,177)"/>
<path d="M0 0 C0.33 1.32 0.66 2.64 1 4 C2.98 4 4.96 4 7 4 C7.33 2.68 7.66 1.36 8 0 C8 2.31 8 4.62 8 7 C19.22 7 30.44 7 42 7 C42 9.64 42 12.28 42 15 C24.51 15 7.02 15 -11 15 C-11 12.36 -11 9.72 -11 7 C-7.37 7 -3.74 7 0 7 C0 4.69 0 2.38 0 0 Z " fill="#7DC4E0" transform="translate(120,102)"/>
<path d="M0 0 C2.31 0 4.62 0 7 0 C7 19.8 7 39.6 7 60 C4.69 60 2.38 60 0 60 C0 40.2 0 20.4 0 0 Z " fill="#B15D1E" transform="translate(42,83)"/>
<path d="M0 0 C2.31 0 4.62 0 7 0 C7 9.9 7 19.8 7 30 C4.69 30 2.38 30 0 30 C0 20.1 0 10.2 0 0 Z " fill="#00C60E" transform="translate(222,124)"/>
<path d="M0 0 C2.31 0 4.62 0 7 0 C7 9.9 7 19.8 7 30 C4.69 30 2.38 30 0 30 C0 20.1 0 10.2 0 0 Z " fill="#DD1641" transform="translate(222,19)"/>
<path d="M0 0 C2.31 0 4.62 0 7 0 C7 9.57 7 19.14 7 29 C4.69 29 2.38 29 0 29 C0 19.43 0 9.86 0 0 Z " fill="#4A6074" transform="translate(222,177)"/>
<path d="M0 0 C2.31 0 4.62 0 7 0 C7 9.57 7 19.14 7 29 C4.69 29 2.38 29 0 29 C0 19.43 0 9.86 0 0 Z " fill="#5990EF" transform="translate(222,72)"/>
<path d="M0 0 C0.82741699 0.01047363 1.65483398 0.02094727 2.50732422 0.03173828 C3.40322266 0.03818359 4.29912109 0.04462891 5.22216797 0.05126953 C6.62789062 0.07640625 6.62789062 0.07640625 8.06201172 0.10205078 C9.00689453 0.11107422 9.95177734 0.12009766 10.92529297 0.12939453 C13.26278464 0.15300556 15.59977295 0.18593562 17.93701172 0.22705078 C17.93701172 2.86705078 17.93701172 5.50705078 17.93701172 8.22705078 C11.00701172 8.22705078 4.07701172 8.22705078 -3.06298828 8.22705078 C-3.39298828 6.24705078 -3.72298828 4.26705078 -4.06298828 2.22705078 C-2.06298828 0.22705078 -2.06298828 0.22705078 0 0 Z " fill="#455A6C" transform="translate(31.06298828125,179.77294921875)"/>
<path d="M0 0 C0.82741699 0.01047363 1.65483398 0.02094727 2.50732422 0.03173828 C3.40322266 0.03818359 4.29912109 0.04462891 5.22216797 0.05126953 C6.62789062 0.07640625 6.62789062 0.07640625 8.06201172 0.10205078 C9.00689453 0.11107422 9.95177734 0.12009766 10.92529297 0.12939453 C13.26278464 0.15300556 15.59977295 0.18593562 17.93701172 0.22705078 C17.93701172 2.86705078 17.93701172 5.50705078 17.93701172 8.22705078 C11.00701172 8.22705078 4.07701172 8.22705078 -3.06298828 8.22705078 C-3.39298828 6.24705078 -3.72298828 4.26705078 -4.06298828 2.22705078 C-2.06298828 0.22705078 -2.06298828 0.22705078 0 0 Z " fill="#455A6C" transform="translate(31.06298828125,149.77294921875)"/>
<path d="M0 0 C0 6.93 0 13.86 0 21 C2.64 21 5.28 21 8 21 C8 28.59 8 36.18 8 44 C7.67 44 7.34 44 7 44 C7 36.74 7 29.48 7 22 C2.38 22 -2.24 22 -7 22 C-7.13548815 19.26916098 -7.23429855 16.54508193 -7.3125 13.8125 C-7.35439453 13.04357422 -7.39628906 12.27464844 -7.43945312 11.48242188 C-7.53311021 7.11800156 -7.40249795 5.51280734 -4.60546875 1.94921875 C-2 0 -2 0 0 0 Z " fill="#9C541E" transform="translate(49,9)"/>
<path d="M0 0 C0.87454834 0.00523682 1.74909668 0.01047363 2.65014648 0.01586914 C3.59438477 0.0190918 4.53862305 0.02231445 5.51147461 0.02563477 C6.50469727 0.03401367 7.49791992 0.04239258 8.52124023 0.05102539 C9.51833008 0.05553711 10.51541992 0.06004883 11.54272461 0.06469727 C14.01478872 0.07652532 16.48673541 0.0930069 18.95874023 0.11352539 C18.95874023 2.42352539 18.95874023 4.73352539 18.95874023 7.11352539 C15.47959083 7.14240353 12.00047193 7.16028226 8.52124023 7.17602539 C7.03140625 7.18859375 7.03140625 7.18859375 5.51147461 7.20141602 C4.56723633 7.20463867 3.62299805 7.20786133 2.65014648 7.21118164 C1.33832397 7.21903687 1.33832397 7.21903687 0 7.22705078 C-2.04125977 7.11352539 -2.04125977 7.11352539 -3.04125977 6.11352539 C-3.16625977 3.61352539 -3.16625977 3.61352539 -3.04125977 1.11352539 C-2.04125977 0.11352539 -2.04125977 0.11352539 0 0 Z " fill="#495F72" transform="translate(30.041259765625,67.886474609375)"/>
<path d="M0 0 C0.87454834 0.00523682 1.74909668 0.01047363 2.65014648 0.01586914 C3.59438477 0.0190918 4.53862305 0.02231445 5.51147461 0.02563477 C6.50469727 0.03401367 7.49791992 0.04239258 8.52124023 0.05102539 C9.51833008 0.05553711 10.51541992 0.06004883 11.54272461 0.06469727 C14.01478872 0.07652532 16.48673541 0.0930069 18.95874023 0.11352539 C18.95874023 2.42352539 18.95874023 4.73352539 18.95874023 7.11352539 C15.47959083 7.14240353 12.00047193 7.16028226 8.52124023 7.17602539 C7.03140625 7.18859375 7.03140625 7.18859375 5.51147461 7.20141602 C4.56723633 7.20463867 3.62299805 7.20786133 2.65014648 7.21118164 C1.33832397 7.21903687 1.33832397 7.21903687 0 7.22705078 C-2.04125977 7.11352539 -2.04125977 7.11352539 -3.04125977 6.11352539 C-3.16625977 3.61352539 -3.16625977 3.61352539 -3.04125977 1.11352539 C-2.04125977 0.11352539 -2.04125977 0.11352539 0 0 Z " fill="#495F72" transform="translate(30.041259765625,37.886474609375)"/>
<path d="M0 0 C-0.433125 0.84111328 -0.433125 0.84111328 -0.875 1.69921875 C-3.90559631 7.89720913 -6.25997353 14.32989852 -8 21 C-10.02045442 20.39816251 -12.02111039 19.72693904 -14 19 C-14.33 18.34 -14.66 17.68 -15 17 C-14.34 17 -13.68 17 -13 17 C-12.95875 16.175 -12.9175 15.35 -12.875 14.5 C-11.52567959 9.10271836 -6.40038366 0 0 0 Z " fill="#D6DFE7" transform="translate(129,43)"/>
<path d="M0 0 C0.33 0 0.66 0 1 0 C1 7.59 1 15.18 1 23 C-1.64 23 -4.28 23 -7 23 C-7 25.31 -7 27.62 -7 30 C-9.64 30 -12.28 30 -15 30 C-15 27.36 -15 24.72 -15 22 C-10.05 22 -5.1 22 0 22 C0 14.74 0 7.48 0 0 Z " fill="#84491D" transform="translate(56,143)"/>
<path d="M0 0 C2.31 0 4.62 0 7 0 C7 2.31 7 4.62 7 7 C9.64 7 12.28 7 15 7 C15 14.59 15 22.18 15 30 C14.67 30 14.34 30 14 30 C14 22.74 14 15.48 14 8 C9.38 8 4.76 8 0 8 C0 5.36 0 2.72 0 0 Z " fill="#8A4D1E" transform="translate(42,53)"/>
<path d="M0 0 C4.62 0 9.24 0 14 0 C10.42857143 5.95238095 10.42857143 5.95238095 7 7 C4.66796188 7.0777346 2.33160941 7.08967728 0 7 C0 4.69 0 2.38 0 0 Z " fill="#DCE6EE" transform="translate(162,72)"/>
<path d="M0 0 C2.64 0 5.28 0 8 0 C8 2.64 8 5.28 8 8 C5.36 8 2.72 8 0 8 C0 5.36 0 2.72 0 0 Z " fill="#FCEFE7" transform="translate(79,15)"/>
<path d="M0 0 C2.64 0 5.28 0 8 0 C8 2.64 8 5.28 8 8 C5.36 8 2.72 8 0 8 C0 5.36 0 2.72 0 0 Z " fill="#FCEFE7" transform="translate(64,15)"/>
<path d="M0 0 C2.64 0 5.28 0 8 0 C8 2.64 8 5.28 8 8 C5.66705225 8.04241723 3.33297433 8.04092937 1 8 C0 7 0 7 -0.0625 3.4375 C-0.041875 2.303125 -0.02125 1.16875 0 0 Z " fill="#1D1F21" transform="translate(60,233)"/>
<path d="M0 0 C1.98 0 3.96 0 6 0 C6 1.98 6 3.96 6 6 C4.02 6 2.04 6 0 6 C0 4.02 0 2.04 0 0 Z " fill="#55CAF4" transform="translate(110,110)"/>
<path d="M0 0 C0.66 0.33 1.32 0.66 2 1 C-0.64 3.64 -3.28 6.28 -6 9 C-6.33 8.34 -6.66 7.68 -7 7 C-4.66666667 4.66666667 -2.33333333 2.33333333 0 0 Z " fill="#27190F" transform="translate(96,51)"/>
<path d="M0 0 C-1 3 -1 3 -2.8125 4.0625 C-3.8953125 4.5265625 -3.8953125 4.5265625 -5 5 C-6.11375 5.556875 -6.11375 5.556875 -7.25 6.125 C-7.8275 6.41375 -8.405 6.7025 -9 7 C-3.34042553 0 -3.34042553 0 0 0 Z " fill="#C8D0D6" transform="translate(129,43)"/>
</svg>
